<svg width="150" viewBox="0 0 193 56" fill="none" xmlns="http://www.w3.org/2000/svg">
    <path
        d="M71.2158 16.9039L79.7326 34.9989H77.7616L74.8892 29.0445H67.0212L64.1761 34.9989H62.1394L70.7688 16.9039H71.2158ZM70.9855 20.7484L67.8556 27.2989H74.1005L70.9855 20.7484Z"
        fill="white"></path>
    <path
        d="M82.3029 21.6157H84.0411V24.0752C84.7283 23.1404 85.5169 22.4388 86.4096 21.9714C87.3035 21.504 88.2989 21.271 89.3983 21.271C91.3161 21.271 92.9578 21.9554 94.3222 23.3244C95.6866 24.6947 96.3687 26.3421 96.3687 28.2705C96.3687 30.2381 95.6928 31.9089 94.3408 33.2816C92.9888 34.6567 91.3582 35.3424 89.4479 35.3424C88.3732 35.3424 87.3852 35.1204 86.4826 34.6775C85.5813 34.2359 84.7667 33.5747 84.0399 32.6964V39.8935H82.3016V21.6157H82.3029ZM89.256 22.9319C87.7529 22.9319 86.4876 23.452 85.4588 24.4923C84.4311 25.5325 83.9173 26.8279 83.9173 28.3748C83.9173 29.3905 84.1464 30.3044 84.6045 31.1152C85.0626 31.9261 85.72 32.5688 86.5743 33.0448C87.4285 33.5195 88.3311 33.7575 89.2807 33.7575C90.2142 33.7575 91.092 33.5183 91.9129 33.0387C92.735 32.559 93.3887 31.8892 93.8765 31.0293C94.3631 30.1694 94.607 29.2678 94.607 28.3257C94.607 27.375 94.3655 26.4746 93.8827 25.622C93.3998 24.7707 92.7498 24.1083 91.9327 23.6373C91.1143 23.1674 90.2217 22.9319 89.256 22.9319Z"
        fill="white"></path>
    <path
        d="M99.6471 21.6157H101.385V24.0752C102.073 23.1404 102.861 22.4388 103.754 21.9714C104.648 21.504 105.643 21.271 106.743 21.271C108.66 21.271 110.302 21.9554 111.666 23.3244C113.031 24.6947 113.713 26.3421 113.713 28.2705C113.713 30.2381 113.037 31.9089 111.685 33.2816C110.333 34.6567 108.702 35.3424 106.792 35.3424C105.717 35.3424 104.729 35.1204 103.827 34.6775C102.926 34.2359 102.111 33.5747 101.384 32.6964V39.8935H99.6459V21.6157H99.6471ZM106.6 22.9319C105.097 22.9319 103.832 23.452 102.803 24.4923C101.775 25.5325 101.262 26.8279 101.262 28.3748C101.262 29.3905 101.491 30.3044 101.949 31.1152C102.407 31.9261 103.064 32.5688 103.918 33.0448C104.773 33.5195 105.675 33.7575 106.625 33.7575C107.558 33.7575 108.436 33.5183 109.257 33.0387C110.079 32.559 110.733 31.8892 111.221 31.0293C111.707 30.1694 111.951 29.2678 111.951 28.3257C111.951 27.375 111.71 26.4746 111.227 25.622C110.744 24.7707 110.094 24.1083 109.277 23.6373C108.459 23.1674 107.566 22.9319 106.6 22.9319Z"
        fill="white"></path>
    <path
        d="M121.353 16.9039H124.878L131.903 34.9989H128.29L126.862 31.271H119.409L117.924 34.9989H114.311L121.353 16.9039ZM123.137 21.7015L120.687 27.9135H125.574L123.137 21.7015Z"
        fill="white"></path>
    <path
        d="M134.193 21.6157H137.583V23.1527C138.163 22.521 138.806 22.0499 139.515 21.7383C140.223 21.4255 140.995 21.271 141.831 21.271C142.675 21.271 143.438 21.4758 144.118 21.8855C144.796 22.2952 145.344 22.8939 145.757 23.6814C146.296 22.8939 146.957 22.2952 147.739 21.8855C148.522 21.4758 149.377 21.271 150.305 21.271C151.265 21.271 152.11 21.493 152.839 21.9346C153.567 22.3774 154.092 22.9552 154.41 23.6691C154.728 24.3831 154.888 25.5435 154.888 27.1505V34.9989H151.475V28.2092C151.475 26.6917 151.284 25.6638 150.903 25.1265C150.521 24.5892 149.95 24.3205 149.189 24.3205C148.61 24.3205 148.09 24.4849 147.632 24.8124C147.172 25.14 146.831 25.5938 146.606 26.1716C146.384 26.7506 146.272 27.6792 146.272 28.9574V34.9977H142.857V28.5158C142.857 27.3186 142.768 26.4513 142.59 25.914C142.412 25.3755 142.144 24.9768 141.787 24.7143C141.43 24.453 140.998 24.3205 140.493 24.3205C139.928 24.3205 139.417 24.4874 138.956 24.8186C138.496 25.151 138.152 25.6171 137.924 26.2145C137.696 26.8132 137.582 27.7565 137.582 29.0433V34.9977H134.192V21.6157H134.193Z"
        fill="white"></path>
    <path
        d="M161.483 16.4488V23.0914C162.095 22.4842 162.757 22.029 163.469 21.7261C164.181 21.4231 164.942 21.2709 165.753 21.2709C167.516 21.2709 169.015 21.9309 170.248 23.2521C171.481 24.5732 172.097 26.2648 172.097 28.3331C172.097 30.3252 171.46 31.9923 170.185 33.3331C168.909 34.6739 167.4 35.3449 165.653 35.3449C164.876 35.3449 164.151 35.2075 163.482 34.9327C162.812 34.6591 162.144 34.2089 161.483 33.5858V35.0002H158.118V16.4488H161.483ZM165.045 24.3708C163.978 24.3708 163.093 24.7315 162.388 25.454C161.684 26.1753 161.332 27.1174 161.332 28.2828C161.332 29.4714 161.684 30.4332 162.388 31.168C163.092 31.9015 163.977 32.2683 165.045 32.2683C166.08 32.2683 166.951 31.8954 167.659 31.1483C168.367 30.4025 168.72 29.4506 168.72 28.295C168.72 27.1468 168.372 26.206 167.677 25.4712C166.983 24.7376 166.105 24.3708 165.045 24.3708Z"
        fill="white"></path>
    <path
        d="M176.226 16.1041C176.821 16.1041 177.33 16.3163 177.754 16.7432C178.18 17.1701 178.392 17.6865 178.392 18.2938C178.392 18.8924 178.181 19.4027 177.76 19.8259C177.339 20.2479 176.836 20.4589 176.25 20.4589C175.647 20.4589 175.133 20.2442 174.709 19.8136C174.283 19.3831 174.071 18.8605 174.071 18.2459C174.071 17.6559 174.281 17.1505 174.702 16.7334C175.125 16.3139 175.632 16.1041 176.226 16.1041ZM174.531 21.6157H177.921V34.9989H174.531V21.6157Z"
        fill="white"></path>
    <path
        d="M181.409 16.6819H184.799V21.6157H186.81V24.5058H184.799V34.9989H181.409V24.5058H179.671V21.6157H181.409V16.6819Z"
        fill="white"></path>
    <path
        d="M52.5419 28.8495L44.3656 28.5477C44.373 28.3662 44.3755 28.1834 44.3755 28.0006C44.3755 19.805 37.6465 13.1379 29.3736 13.1379C27.6601 13.1379 25.98 13.4225 24.3804 13.9831L21.6479 6.34203C24.1278 5.47108 26.7266 5.02946 29.3736 5.02946C42.1568 5.02946 52.558 15.3337 52.558 27.9994C52.558 28.284 52.5518 28.5673 52.5419 28.8495Z"
        fill="#13CEBB"></path>
    <path
        d="M7.27623 34.9535C6.55566 32.7087 6.19043 30.3694 6.19043 27.9994C6.19043 20.0614 10.2501 12.7896 17.0521 8.54764L21.4102 15.4086C17.0039 18.1564 14.3729 22.8632 14.3729 27.9994C14.3729 29.534 14.6082 31.0465 15.0737 32.4952L7.27623 34.9535Z"
        fill="#F6931D"></path>
    <path
        d="M29.3736 50.9705C21.6182 50.9705 14.4076 47.1432 10.0854 40.7325L16.8887 36.2293C19.6893 40.3829 24.3568 42.8633 29.3736 42.8633C36.0592 42.8633 41.9971 38.4092 43.8146 32.0315L51.6888 34.2335C48.8821 44.0888 39.7054 50.9705 29.3736 50.9705Z"
        fill="#27A9E0"></path>
    <path d="M35.4129 21.7506L20.6648 26.5188L28.5885 28.5121L30.6017 36.363L35.4129 21.7506Z" fill="white">
    </path>
</svg>
